<svg xmlns="http://www.w3.org/2000/svg" viewBox="0 0 16 16" id="Braces-Fill--Streamline-Mingcute-Fill" height="16" width="16">
  <desc>
    Braces Fill Streamline Icon: https://streamlinehq.com
  </desc>
  <g fill="none" fill-rule="nonzero">
    <path d="M16 0v16H0V0h16ZM8.395333333333333 15.505333333333333l-0.007333333333333332 0.0013333333333333333 -0.047333333333333324 0.023333333333333334 -0.013333333333333332 0.0026666666666666666 -0.009333333333333332 -0.0026666666666666666 -0.047333333333333324 -0.023333333333333334c-0.006666666666666666 -0.0026666666666666666 -0.012666666666666666 -0.0006666666666666666 -0.016 0.003333333333333333l-0.0026666666666666666 0.006666666666666666 -0.011333333333333334 0.2853333333333333 0.003333333333333333 0.013333333333333332 0.006666666666666666 0.008666666666666666 0.06933333333333333 0.049333333333333326 0.009999999999999998 0.0026666666666666666 0.008 -0.0026666666666666666 0.06933333333333333 -0.049333333333333326 0.008 -0.010666666666666666 0.0026666666666666666 -0.011333333333333334 -0.011333333333333334 -0.2846666666666666c-0.0013333333333333333 -0.006666666666666666 -0.005999999999999999 -0.011333333333333334 -0.011333333333333334 -0.011999999999999999Zm0.17666666666666667 -0.07533333333333334 -0.008666666666666666 0.0013333333333333333 -0.12333333333333332 0.062 -0.006666666666666666 0.006666666666666666 -0.002 0.007333333333333332 0.011999999999999999 0.2866666666666666 0.003333333333333333 0.008 0.005333333333333333 0.004666666666666666 0.134 0.062c0.008 0.0026666666666666666 0.015333333333333332 0 0.019333333333333334 -0.005333333333333333l0.0026666666666666666 -0.009333333333333332 -0.02266666666666667 -0.4093333333333333c-0.002 -0.008 -0.006666666666666666 -0.013333333333333332 -0.013333333333333332 -0.014666666666666665Zm-0.4766666666666666 0.0013333333333333333a0.015333333333333332 0.015333333333333332 0 0 0 -0.018 0.004l-0.004 0.009333333333333332 -0.02266666666666667 0.4093333333333333c0 0.008 0.004666666666666666 0.013333333333333332 0.011333333333333334 0.016l0.009999999999999998 -0.0013333333333333333 0.134 -0.062 0.006666666666666666 -0.005333333333333333 0.0026666666666666666 -0.007333333333333332 0.011333333333333334 -0.2866666666666666 -0.002 -0.008 -0.006666666666666666 -0.006666666666666666 -0.12266666666666666 -0.06133333333333333Z" stroke-width="0.6667"></path>
    <path fill="#000000" d="M5.333333333333333 1.6666666666666665a1 1 0 0 1 0.09599999999999999 1.9953333333333332L5.333333333333333 3.6666666666666665H4.666666666666666a0.3333333333333333 0.3333333333333333 0 0 0 -0.32799999999999996 0.2733333333333333L4.333333333333333 4v2.6666666666666665c0 0.496 -0.15466666666666667 0.9553333333333334 -0.418 1.3333333333333333a2.32 2.32 0 0 1 0.4126666666666666 1.1693333333333333L4.333333333333333 9.333333333333332v2.6666666666666665a0.3333333333333333 0.3333333333333333 0 0 0 0.2733333333333333 0.32799999999999996L4.666666666666666 12.333333333333332h0.6666666666666666a1 1 0 0 1 0.09599999999999999 1.9953333333333332L5.333333333333333 14.333333333333332H4.666666666666666a2.333333333333333 2.333333333333333 0 0 1 -2.33 -2.205333333333333L2.333333333333333 12v-2.6666666666666665a0.3333333333333333 0.3333333333333333 0 0 0 -0.3333333333333333 -0.3333333333333333 1 1 0 0 1 0 -2 0.3333333333333333 0.3333333333333333 0 0 0 0.32799999999999996 -0.2733333333333333L2.333333333333333 6.666666666666666V4a2.333333333333333 2.333333333333333 0 0 1 2.205333333333333 -2.33L4.666666666666666 1.6666666666666665h0.6666666666666666Zm6 0a2.333333333333333 2.333333333333333 0 0 1 2.33 2.205333333333333L13.666666666666666 4v2.6666666666666665a0.3333333333333333 0.3333333333333333 0 0 0 0.3333333333333333 0.3333333333333333 1 1 0 0 1 0 2 0.3333333333333333 0.3333333333333333 0 0 0 -0.32799999999999996 0.2733333333333333L13.666666666666666 9.333333333333332v2.6666666666666665a2.333333333333333 2.333333333333333 0 0 1 -2.205333333333333 2.33L11.333333333333332 14.333333333333332h-0.6666666666666666a1 1 0 0 1 -0.09599999999999999 -1.9953333333333332L10.666666666666666 12.333333333333332h0.6666666666666666a0.3333333333333333 0.3333333333333333 0 0 0 0.32799999999999996 -0.2733333333333333L11.666666666666666 12v-2.6666666666666665c0 -0.496 0.15466666666666667 -0.9553333333333334 0.418 -1.3333333333333333a2.3206666666666664 2.3206666666666664 0 0 1 -0.4126666666666666 -1.1693333333333333L11.666666666666666 6.666666666666666V4a0.3333333333333333 0.3333333333333333 0 0 0 -0.2733333333333333 -0.32799999999999996L11.333333333333332 3.6666666666666665h-0.6666666666666666a1 1 0 0 1 -0.09599999999999999 -1.9953333333333332L10.666666666666666 1.6666666666666665h0.6666666666666666Z" stroke-width="0.6667"></path>
  </g>
</svg>